<?xml version="1.0" encoding="UTF-8" standalone="no"?>
<!DOCTYPE svg PUBLIC "-//W3C//DTD SVG 1.1//EN" "http://www.w3.org/Graphics/SVG/1.1/DTD/svg11.dtd">
<svg version="1.1" xmlns="http://www.w3.org/2000/svg" xmlns:xlink="http://www.w3.org/1999/xlink" preserveAspectRatio="xMidYMid meet" viewBox="0 0 640 640" width="640" height="640"><defs><path d="M52.1 324.69L587.9 324.69L587.9 640L52.1 640L52.1 324.69Z" id="axC1XKAZo"></path><path d="M150 103.1L191.03 103.1L191.03 189.86L150 189.86L150 103.1Z" id="b5faFgPH"></path><path d="M480 172.14L640 324.69L319.99 324.69L0 324.69L159.98 172.14L319.99 19.59L480 172.14Z" id="aiDKAlARV"></path><path d="M484 441L587.9 441L587.9 640L484 640L484 441Z" id="bUIWtboRI"></path><path d="M244 385.94L396 385.94L396 515.94L244 515.94L244 385.94Z" id="eNuxZnxPQ"></path><path d="" id="cPwHQd1bf"></path><path d="M320 515.94L320 385.94" id="e3iepOV09"></path><path d="M396 450.94L244 450.94" id="bpDmSxwpz"></path><path d="M505.95 535.55C505.95 538.86 503.27 541.55 499.97 541.55C496.68 541.55 494 538.86 494 535.55C494 532.24 496.68 529.56 499.97 529.56C503.27 529.56 505.95 532.24 505.95 535.55Z" id="a3htDoWCWr"></path><path d="M167.25 91.98L165.75 70.98L164 51.98L168 35.98" id="h5onsQlO"></path><path d="M179 93.98L187 57.98L184.58 35.98L179.97 27.98L182.39 8.98" id="gfwTCelfG"></path><path d="M155.34 87.42L153.53 59.69L145.86 41.35L140.23 20.59" id="f1VAXpHExI"></path></defs><g><g><g><use xlink:href="#axC1XKAZo" opacity="1" fill="#928f93" fill-opacity="1"></use><g><use xlink:href="#axC1XKAZo" opacity="1" fill-opacity="0" stroke="#000000" stroke-width="2" stroke-opacity="1"></use></g></g><g><use xlink:href="#b5faFgPH" opacity="1" fill="#999865" fill-opacity="1"></use><g><use xlink:href="#b5faFgPH" opacity="1" fill-opacity="0" stroke="#000000" stroke-width="2" stroke-opacity="1"></use></g></g><g><use xlink:href="#aiDKAlARV" opacity="1" fill="#6f0f09" fill-opacity="1"></use><g><use xlink:href="#aiDKAlARV" opacity="1" fill-opacity="0" stroke="#000000" stroke-width="2" stroke-opacity="1"></use></g></g><g><use xlink:href="#bUIWtboRI" opacity="1" fill="#4d2b09" fill-opacity="1"></use><g><use xlink:href="#bUIWtboRI" opacity="1" fill-opacity="0" stroke="#000000" stroke-width="2" stroke-opacity="1"></use></g></g><g><use xlink:href="#eNuxZnxPQ" opacity="1" fill="#307dc5" fill-opacity="1"></use><g><use xlink:href="#eNuxZnxPQ" opacity="1" fill-opacity="0" stroke="#000000" stroke-width="2" stroke-opacity="1"></use></g></g><g><g><use xlink:href="#cPwHQd1bf" opacity="1" fill-opacity="0" stroke="#000000" stroke-width="1" stroke-opacity="1"></use></g></g><g><g><use xlink:href="#e3iepOV09" opacity="1" fill-opacity="0" stroke="#000000" stroke-width="1" stroke-opacity="1"></use></g></g><g><g><use xlink:href="#bpDmSxwpz" opacity="1" fill-opacity="0" stroke="#000000" stroke-width="1" stroke-opacity="1"></use></g></g><g><use xlink:href="#a3htDoWCWr" opacity="1" fill="#060a0c" fill-opacity="1"></use></g><g><g><use xlink:href="#h5onsQlO" opacity="1" fill-opacity="0" stroke="#000000" stroke-width="2" stroke-opacity="1"></use></g></g><g><g><use xlink:href="#gfwTCelfG" opacity="1" fill-opacity="0" stroke="#000000" stroke-width="2" stroke-opacity="1"></use></g></g><g><g><use xlink:href="#f1VAXpHExI" opacity="1" fill-opacity="0" stroke="#000000" stroke-width="2" stroke-opacity="1"></use></g></g></g></g></svg>